<?xml version="1.0" encoding="UTF-8"?>
<svg version="1.1" xmlns="http://www.w3.org/2000/svg" width="846" height="78">
<path d="M0 0 C11.55 0 23.1 0 35 0 C35 2.31 35 4.62 35 7 C37.64 7 40.28 7 43 7 C43 9.31 43 11.62 43 14 C48.28 14 53.56 14 59 14 C59 23.57 59 33.14 59 43 C61.64 43 64.28 43 67 43 C67 33.43 67 23.86 67 14 C86.8 14 106.6 14 127 14 C127 16.31 127 18.62 127 21 C129.97 21 132.94 21 136 21 C136 18.69 136 16.38 136 14 C147.88 14 159.76 14 172 14 C172 16.31 172 18.62 172 21 C175.63 21 179.26 21 183 21 C183 18.69 183 16.38 183 14 C194.88 14 206.76 14 219 14 C219 16.31 219 18.62 219 21 C220.32 21 221.64 21 223 21 C223 18.69 223 16.38 223 14 C225.31 14 227.62 14 230 14 C230 9.38 230 4.76 230 0 C236.93 0 243.86 0 251 0 C251 4.62 251 9.24 251 14 C258.26 14 265.52 14 273 14 C273 20.93 273 27.86 273 35 C265.74 35 258.48 35 251 35 C251 37.64 251 40.28 251 43 C253.64 43 256.28 43 259 43 C259 40.69 259 38.38 259 36 C264.28 36 269.56 36 275 36 C275 24.12 275 12.24 275 0 C281.93 0 288.86 0 296 0 C296 4.62 296 9.24 296 14 C303.26 14 310.52 14 318 14 C318 16.31 318 18.62 318 21 C320.64 21 323.28 21 326 21 C326 35.19 326 49.38 326 64 C319.07 64 312.14 64 305 64 C304.67 56.74 304.34 49.48 304 42 C301.36 42 298.72 42 296 42 C296 49.26 296 56.52 296 64 C289.07 64 282.14 64 275 64 C275 61.69 275 59.38 275 57 C274.34 57 273.68 57 273 57 C273 59.31 273 61.62 273 64 C261.12 64 249.24 64 237 64 C237 61.69 237 59.38 237 57 C234.69 57 232.38 57 230 57 C230 49.74 230 42.48 230 35 C228.68 35 227.36 35 226 35 C226 42.26 226 49.52 226 57 C223.69 57 221.38 57 219 57 C219 59.31 219 61.62 219 64 C207.12 64 195.24 64 183 64 C183 61.69 183 59.38 183 57 C179.37 57 175.74 57 172 57 C172 59.31 172 61.62 172 64 C152.86 64 133.72 64 114 64 C114 54.43 114 44.86 114 35 C111.36 35 108.72 35 106 35 C106 44.57 106 54.14 106 64 C99.07 64 92.14 64 85 64 C85 61.69 85 59.38 85 57 C83.68 57 82.36 57 81 57 C81 59.31 81 61.62 81 64 C69.12 64 57.24 64 45 64 C45 61.69 45 59.38 45 57 C42.69 57 40.38 57 38 57 C38 52.05 38 47.1 38 42 C37.01 42 36.02 42 35 42 C35 44.31 35 46.62 35 49 C27.74 49 20.48 49 13 49 C13 53.95 13 58.9 13 64 C6.4 64 -0.2 64 -7 64 C-7 45.19 -7 26.38 -7 7 C-4.69 7 -2.38 7 0 7 C0 4.69 0 2.38 0 0 Z M13 21 C13 23.31 13 25.62 13 28 C15.97 28 18.94 28 22 28 C22 25.69 22 23.38 22 21 C19.03 21 16.06 21 13 21 Z " fill="#040404" transform="translate(240,0)"/>
<path d="M0 0 C6.93 0 13.86 0 21 0 C21 2.31 21 4.62 21 7 C23.31 7 25.62 7 28 7 C28 9.31 28 11.62 28 14 C30.31 14 32.62 14 35 14 C35 16.31 35 18.62 35 21 C36.65 21 38.3 21 40 21 C40 18.69 40 16.38 40 14 C46.93 14 53.86 14 61 14 C61 9.38 61 4.76 61 0 C73.87 0 86.74 0 100 0 C100 4.62 100 9.24 100 14 C100.66 14 101.32 14 102 14 C102 9.38 102 4.76 102 0 C108.93 0 115.86 0 123 0 C123 4.62 123 9.24 123 14 C130.26 14 137.52 14 145 14 C145 20.93 145 27.86 145 35 C137.74 35 130.48 35 123 35 C123 37.64 123 40.28 123 43 C125.64 43 128.28 43 131 43 C131 40.69 131 38.38 131 36 C136.94 36 142.88 36 149 36 C149 28.74 149 21.48 149 14 C155.93 14 162.86 14 170 14 C170 21.26 170 28.52 170 36 C172.64 36 175.28 36 178 36 C178 28.74 178 21.48 178 14 C184.93 14 191.86 14 199 14 C199 16.31 199 18.62 199 21 C200.32 21 201.64 21 203 21 C203 18.69 203 16.38 203 14 C214.55 14 226.1 14 238 14 C238 16.31 238 18.62 238 21 C240.64 21 243.28 21 246 21 C246 28.26 246 35.52 246 43 C248.31 43 250.62 43 253 43 C253 49.93 253 56.86 253 64 C236.5 64 220 64 203 64 C203 61.69 203 59.38 203 57 C201.68 57 200.36 57 199 57 C199 61.62 199 66.24 199 71 C196.36 71 193.72 71 191 71 C191 73.31 191 75.62 191 78 C179.45 78 167.9 78 156 78 C156 75.69 156 73.38 156 71 C153.69 71 151.38 71 149 71 C149 66.38 149 61.76 149 57 C147.68 57 146.36 57 145 57 C145 59.31 145 61.62 145 64 C133.12 64 121.24 64 109 64 C109 61.69 109 59.38 109 57 C106.69 57 104.38 57 102 57 C102 49.74 102 42.48 102 35 C101.34 35 100.68 35 100 35 C100 44.57 100 54.14 100 64 C93.07 64 86.14 64 79 64 C79 61.69 79 59.38 79 57 C77.68 57 76.36 57 75 57 C75 59.31 75 61.62 75 64 C63.45 64 51.9 64 40 64 C40 61.69 40 59.38 40 57 C38.35 57 36.7 57 35 57 C35 59.31 35 61.62 35 64 C28.07 64 21.14 64 14 64 C14 59.05 14 54.1 14 49 C11.36 49 8.72 49 6 49 C6 53.95 6 58.9 6 64 C-0.93 64 -7.86 64 -15 64 C-15 47.5 -15 31 -15 14 C-12.36 14 -9.72 14 -7 14 C-7 11.69 -7 9.38 -7 7 C-4.69 7 -2.38 7 0 7 C0 4.69 0 2.38 0 0 Z M53 35 C53 37.64 53 40.28 53 43 C55.64 43 58.28 43 61 43 C61 40.36 61 37.72 61 35 C58.36 35 55.72 35 53 35 Z M216 35 C216 37.64 216 40.28 216 43 C218.97 43 221.94 43 225 43 C225 40.36 225 37.72 225 35 C222.03 35 219.06 35 216 35 Z M152 49 C156 50 156 50 156 50 Z " fill="#030303" transform="translate(593,0)"/>
<path d="M0 0 C17.49 0 34.98 0 53 0 C53 2.31 53 4.62 53 7 C53.99 7 54.98 7 56 7 C56 9.31 56 11.62 56 14 C74.15 14 92.3 14 111 14 C111 16.31 111 18.62 111 21 C113.31 21 115.62 21 118 21 C118 35.19 118 49.38 118 64 C96.55 64 75.1 64 53 64 C53 52.12 53 40.24 53 28 C47.06 28 41.12 28 35 28 C35 25.69 35 23.38 35 21 C32.69 21 30.38 21 28 21 C28 28.26 28 35.52 28 43 C30.31 43 32.62 43 35 43 C35 49.93 35 56.86 35 64 C23.45 64 11.9 64 0 64 C0 57.07 0 50.14 0 43 C2.31 43 4.62 43 7 43 C7 35.74 7 28.48 7 21 C4.69 21 2.38 21 0 21 C0 14.07 0 7.14 0 0 Z " fill="#030303" transform="translate(102,0)"/>
<path d="M0 0 C6.93 0 13.86 0 21 0 C21 4.62 21 9.24 21 14 C23.64 14 26.28 14 29 14 C29 9.38 29 4.76 29 0 C41.54 0 54.08 0 67 0 C67 13.86 67 27.72 67 42 C72.94 42 78.88 42 85 42 C85 44.31 85 46.62 85 49 C86.32 49 87.64 49 89 49 C89 54.61 89 60.22 89 66 C87.68 66 86.36 66 85 66 C85 67.32 85 68.64 85 70 C79.39 70 73.78 70 68 70 C67.67 68.02 67.34 66.04 67 64 C54.46 64 41.92 64 29 64 C29 56.74 29 49.48 29 42 C26.36 42 23.72 42 21 42 C21 49.26 21 56.52 21 64 C14.07 64 7.14 64 0 64 C0 42.88 0 21.76 0 0 Z " fill="#020202" transform="translate(0,0)"/>
<path d="M0 0 C2.97 0 5.94 0 9 0 C9 2.31 9 4.62 9 7 C11.31 7 13.62 7 16 7 C16 9.31 16 11.62 16 14 C18.31 14 20.62 14 23 14 C23 26.54 23 39.08 23 52 C20.36 52 17.72 52 15 52 C15 47.05 15 42.1 15 37 C8.07 37 1.14 37 -6 37 C-6 41.95 -6 46.9 -6 52 C-8.64 52 -11.28 52 -14 52 C-14 39.46 -14 26.92 -14 14 C-11.69 14 -9.38 14 -7 14 C-7 11.69 -7 9.38 -7 7 C-4.69 7 -2.38 7 0 7 C0 4.69 0 2.38 0 0 Z " fill="#F9F9F9" transform="translate(599,6)"/>
<path d="M0 0 C2.64 0 5.28 0 8 0 C8 14.52 8 29.04 8 44 C5.69 44 3.38 44 1 44 C1.020625 45.134375 1.04125 46.26875 1.0625 47.4375 C1 51 1 51 0 52 C-1.63472882 52.08700342 -3.27314055 52.10701063 -4.91015625 52.09765625 C-5.89951172 52.09443359 -6.88886719 52.09121094 -7.90820312 52.08789062 C-8.94912109 52.07951172 -9.99003906 52.07113281 -11.0625 52.0625 C-12.10728516 52.05798828 -13.15207031 52.05347656 -14.22851562 52.04882812 C-16.8190666 52.03699913 -19.40950559 52.02051689 -22 52 C-22 49.36 -22 46.72 -22 44 C-24.31 44 -26.62 44 -29 44 C-29 36.74 -29 29.48 -29 22 C-26.69 22 -24.38 22 -22 22 C-22 19.36 -22 16.72 -22 14 C-14.74 14 -7.48 14 0 14 C0 9.38 0 4.76 0 0 Z M-15 29 C-15 31.64 -15 34.28 -15 37 C-12.36 37 -9.72 37 -7 37 C-7 34.36 -7 31.72 -7 29 C-9.64 29 -12.28 29 -15 29 Z " fill="#EBEBEB" transform="translate(661,6)"/>
<path d="M0 0 C7.59 0 15.18 0 23 0 C23 2.31 23 4.62 23 7 C25.31 7 27.62 7 30 7 C30 14.59 30 22.18 30 30 C27.69 30 25.38 30 23 30 C23 32.31 23 34.62 23 37 C15.74 37 8.48 37 1 37 C1 41.95 1 46.9 1 52 C-1.64 52 -4.28 52 -7 52 C-7 37.15 -7 22.3 -7 7 C-4.69 7 -2.38 7 0 7 C0 4.69 0 2.38 0 0 Z M7 15 C7 17.31 7 19.62 7 22 C9.97 22 12.94 22 16 22 C16 19.69 16 17.38 16 15 C13.03 15 10.06 15 7 15 Z " fill="#F7F7F7" transform="translate(246,6)"/>
<path d="M0 0 C7.59 0 15.18 0 23 0 C23 2.31 23 4.62 23 7 C25.31 7 27.62 7 30 7 C30 14.26 30 21.52 30 29 C32.31 29 34.62 29 37 29 C37 31.31 37 33.62 37 36 C34.36 36 31.72 36 29 36 C29 33.69 29 31.38 29 29 C27.02 29 25.04 29 23 29 C23 31.64 23 34.28 23 37 C15.41 37 7.82 37 0 37 C0 34.36 0 31.72 0 29 C-2.31 29 -4.62 29 -7 29 C-7 21.74 -7 14.48 -7 7 C-4.69 7 -2.38 7 0 7 C0 4.69 0 2.38 0 0 Z M7 14 C7 16.64 7 19.28 7 22 C9.97 22 12.94 22 16 22 C16 19.36 16 16.72 16 14 C13.03 14 10.06 14 7 14 Z " fill="#FDFDFD" transform="translate(802,21)"/>
<path d="M0 0 C7.26 0 14.52 0 22 0 C22 2.64 22 5.28 22 8 C24.31 8 26.62 8 29 8 C29 5.36 29 2.72 29 0 C33.95 0 38.9 0 44 0 C44 2.64 44 5.28 44 8 C46.31 8 48.62 8 51 8 C51 17.9 51 27.8 51 38 C48.36 38 45.72 38 43 38 C43 28.43 43 18.86 43 9 C38.71 9 34.42 9 30 9 C30.01160156 11.00964844 30.02320313 13.01929688 30.03515625 15.08984375 C30.0421074 17.02921424 30.04902396 18.96858503 30.05493164 20.90795898 C30.05997057 22.25920386 30.06680177 23.61044326 30.07543945 24.96166992 C30.08752419 26.90020434 30.09269828 28.838778 30.09765625 30.77734375 C30.10551147 32.52905884 30.10551147 32.52905884 30.11352539 34.31616211 C30 37 30 37 29 38 C25.5 38.125 25.5 38.125 22 38 C21 37 21 37 20.88647461 34.31616211 C20.89171143 33.14835205 20.89694824 31.98054199 20.90234375 30.77734375 C20.90556641 29.51728516 20.90878906 28.25722656 20.91210938 26.95898438 C20.92046597 25.61848891 20.92893093 24.27799412 20.9375 22.9375 C20.9425134 21.59310058 20.94707658 20.2486994 20.95117188 18.90429688 C20.96300503 15.60284567 20.98094114 12.3014174 21 9 C16.71 9 12.42 9 8 9 C8 18.57 8 28.14 8 38 C5.36 38 2.72 38 0 38 C0 25.46 0 12.92 0 0 Z " fill="#FAFAFA" transform="translate(162,20)"/>
<path d="M0 0 C2.64 0 5.28 0 8 0 C8 7.26 8 14.52 8 22 C10.31 22 12.62 22 15 22 C15 19.36 15 16.72 15 14 C17.64 14 20.28 14 23 14 C23 16.64 23 19.28 23 22 C24.98 22 26.96 22 29 22 C29 14.74 29 7.48 29 0 C31.64 0 34.28 0 37 0 C37 17.16 37 34.32 37 52 C34.36 52 31.72 52 29 52 C29 44.74 29 37.48 29 30 C22.07 30 15.14 30 8 30 C8 37.26 8 44.52 8 52 C5.36 52 2.72 52 0 52 C0 34.84 0 17.68 0 0 Z " fill="#F9F9F9" transform="translate(6,6)"/>
<path d="M0 0 C2.64 0 5.28 0 8 0 C8 7.26 8 14.52 8 22 C14.93 22 21.86 22 29 22 C29 14.74 29 7.48 29 0 C31.64 0 34.28 0 37 0 C37 14.85 37 29.7 37 45 C34.69 45 32.38 45 30 45 C30 47.31 30 49.62 30 52 C22.41 52 14.82 52 7 52 C7 49.69 7 47.38 7 45 C4.69 45 2.38 45 0 45 C0 42.36 0 39.72 0 37 C2.64 37 5.28 37 8 37 C8 39.31 8 41.62 8 44 C14.93 44 21.86 44 29 44 C29 39.38 29 34.76 29 30 C21.74 30 14.48 30 7 30 C7 27.69 7 25.38 7 23 C4.69 23 2.38 23 0 23 C0 15.41 0 7.82 0 0 Z " fill="#F9F9F9" transform="translate(748,20)"/>
<path d="M0 0 C2.64 0 5.28 0 8 0 C8 4.62 8 9.24 8 14 C15.26 14 22.52 14 30 14 C30 16.97 30 19.94 30 23 C22.74 23 15.48 23 8 23 C8 29.6 8 36.2 8 43 C14.93 43 21.86 43 29 43 C29 40.69 29 38.38 29 36 C31.64 36 34.28 36 37 36 C37 38.64 37 41.28 37 44 C34.69 44 32.38 44 30 44 C30 46.64 30 49.28 30 52 C22.41 52 14.82 52 7 52 C7 49.36 7 46.72 7 44 C4.69 44 2.38 44 0 44 C0 37.07 0 30.14 0 23 C-2.31 23 -4.62 23 -7 23 C-7 20.03 -7 17.06 -7 14 C-4.69 14 -2.38 14 0 14 C0 9.38 0 4.76 0 0 Z " fill="#ECECEC" transform="translate(701,6)"/>
<path d="M0 0 C2.64 0 5.28 0 8 0 C8 7.26 8 14.52 8 22 C9.98 22 11.96 22 14 22 C14 19.36 14 16.72 14 14 C19.28 14 24.56 14 30 14 C30 16.64 30 19.28 30 22 C32.31 22 34.62 22 37 22 C37 31.9 37 41.8 37 52 C34.36 52 31.72 52 29 52 C29 42.43 29 32.86 29 23 C24.38 23 19.76 23 15 23 C15 25.31 15 27.62 15 30 C12.69 30 10.38 30 8 30 C8 36.93 8 43.86 8 51 C5.36 51 2.72 51 0 51 C0 34.17 0 17.34 0 0 Z " fill="#FDFDFD" transform="translate(522,6)"/>
<path d="M0 0 C2.64 0 5.28 0 8 0 C8 4.62 8 9.24 8 14 C10.25650391 13.98259766 10.25650391 13.98259766 12.55859375 13.96484375 C14.51822793 13.95546751 16.47786345 13.94636713 18.4375 13.9375 C19.43072266 13.92912109 20.42394531 13.92074219 21.44726562 13.91210938 C22.39150391 13.90888672 23.33574219 13.90566406 24.30859375 13.90234375 C25.18314209 13.89710693 26.05769043 13.89187012 26.95874023 13.88647461 C29 14 29 14 30 15 C30.125 18.5 30.125 18.5 30 22 C29 23 29 23 26.95874023 23.11352539 C26.08419189 23.10828857 25.20964355 23.10305176 24.30859375 23.09765625 C23.36435547 23.09443359 22.42011719 23.09121094 21.44726562 23.08789062 C20.45404297 23.07951172 19.46082031 23.07113281 18.4375 23.0625 C17.44041016 23.05798828 16.44332031 23.05347656 15.41601562 23.04882812 C12.94398513 23.03700023 10.47198528 23.01906415 8 23 C8 29.6 8 36.2 8 43 C14.93 43 21.86 43 29 43 C29 40.69 29 38.38 29 36 C31.64 36 34.28 36 37 36 C37 38.64 37 41.28 37 44 C34.69 44 32.38 44 30 44 C30 46.31 30 48.62 30 51 C22.41 51 14.82 51 7 51 C7 48.69 7 46.38 7 44 C4.69 44 2.38 44 0 44 C0 36.74 0 29.48 0 22 C-2.31 22 -4.62 22 -7 22 C-7 19.69 -7 17.38 -7 15 C-4.69 15 -2.38 15 0 15 C0 10.05 0 5.1 0 0 Z " fill="#EEEEEE" transform="translate(477,6)"/>
<path d="M0 0 C3.64581687 -0.02887512 7.29160463 -0.04675585 10.9375 -0.0625 C11.97841797 -0.07087891 13.01933594 -0.07925781 14.09179688 -0.08789062 C15.08115234 -0.09111328 16.07050781 -0.09433594 17.08984375 -0.09765625 C18.46450806 -0.10551147 18.46450806 -0.10551147 19.86694336 -0.11352539 C22 0 22 0 23 1 C23.04080783 2.99958364 23.04254356 5.00045254 23 7 C25.31 7 27.62 7 30 7 C30 9.97 30 12.94 30 16 C27.03 16 24.06 16 21 16 C21 13.69 21 11.38 21 9 C14.4 9 7.8 9 1 9 C1 10.98 1 12.96 1 15 C5.62 15 10.24 15 15 15 C15 17.64 15 20.28 15 23 C10.38 23 5.76 23 1 23 C1 24.98 1 26.96 1 29 C7.6 29 14.2 29 21 29 C21 26.69 21 24.38 21 22 C23.97 22 26.94 22 30 22 C30 24.64 30 27.28 30 30 C27.36 30 24.72 30 22 30 C22 32.31 22 34.62 22 37 C14.74 37 7.48 37 0 37 C0 34.69 0 32.38 0 30 C-2.64 30 -5.28 30 -8 30 C-8 22.74 -8 15.48 -8 8 C-5.36 8 -2.72 8 0 8 C0 5.36 0 2.72 0 0 Z " fill="#F3F3F3" transform="translate(430,20)"/>
<path d="M0 0 C7.59 0 15.18 0 23 0 C23 1.98 23 3.96 23 6 C25.31 6 27.62 6 30 6 C30 8.97 30 11.94 30 15 C27.03 15 24.06 15 21 15 C21 12.69 21 10.38 21 8 C14.4 8 7.8 8 1 8 C1 9.98 1 11.96 1 14 C5.62 14 10.24 14 15 14 C15 16.64 15 19.28 15 22 C10.38 22 5.76 22 1 22 C1 23.98 1 25.96 1 28 C7.6 28 14.2 28 21 28 C21 25.69 21 23.38 21 21 C23.97 21 26.94 21 30 21 C30 23.64 30 26.28 30 29 C27.69 29 25.38 29 23 29 C23.020625 30.134375 23.04125 31.26875 23.0625 32.4375 C23 36 23 36 22 37 C20.36527118 37.08700342 18.72685945 37.10701063 17.08984375 37.09765625 C16.10048828 37.09443359 15.11113281 37.09121094 14.09179688 37.08789062 C13.05087891 37.07951172 12.00996094 37.07113281 10.9375 37.0625 C9.89271484 37.05798828 8.84792969 37.05347656 7.77148438 37.04882812 C5.1809334 37.03699913 2.59049441 37.02051689 0 37 C0 34.36 0 31.72 0 29 C-2.31 29 -4.62 29 -7 29 C-7 21.74 -7 14.48 -7 7 C-4.69 7 -2.38 7 0 7 C0 4.69 0 2.38 0 0 Z " fill="#FCFCFC" transform="translate(383,21)"/>
<path d="M0 0 C9.9 0 19.8 0 30 0 C30 2.64 30 5.28 30 8 C32.31 8 34.62 8 37 8 C37 17.9 37 27.8 37 38 C34.36 38 31.72 38 29 38 C29 28.1 29 18.2 29 8 C22.07 8 15.14 8 8 8 C8 17.9 8 27.8 8 38 C5.36 38 2.72 38 0 38 C0 25.46 0 12.92 0 0 Z " fill="#EDEDED" transform="translate(331,20)"/>
<path d="M0 0 C2.64 0 5.28 0 8 0 C9 1 9 1 9.11352539 3.68383789 C9.10828857 4.85164795 9.10305176 6.01945801 9.09765625 7.22265625 C9.09443359 8.48271484 9.09121094 9.74277344 9.08789062 11.04101562 C9.07953403 12.38151109 9.07106907 13.72200588 9.0625 15.0625 C9.0574866 16.40689942 9.05292342 17.7513006 9.04882812 19.09570312 C9.03699497 22.39715433 9.01905886 25.6985826 9 29 C15.6 29 22.2 29 29 29 C29 19.43 29 9.86 29 0 C31.64 0 34.28 0 37 0 C37 9.9 37 19.8 37 30 C34.69 30 32.38 30 30 30 C30 32.31 30 34.62 30 37 C22.41 37 14.82 37 7 37 C7 34.69 7 32.38 7 30 C4.69 30 2.38 30 0 30 C0 20.1 0 10.2 0 0 Z " fill="#D3D3D3" transform="translate(284,20)"/>
<path d="M0 0 C7.59 0 15.18 0 23 0 C23 2.64 23 5.28 23 8 C20.36 8 17.72 8 15 8 C15 19.55 15 31.1 15 43 C17.64 43 20.28 43 23 43 C23 45.97 23 48.94 23 52 C15.41 52 7.82 52 0 52 C0 49.03 0 46.06 0 43 C2.31 43 4.62 43 7 43 C7 31.45 7 19.9 7 8 C4.69 8 2.38 8 0 8 C0 5.36 0 2.72 0 0 Z " fill="#F2F2F2" transform="translate(108,6)"/>
<path d="M0 0 C2.64 0 5.28 0 8 0 C8 6.93 8 13.86 8 21 C14.93 21 21.86 21 29 21 C29 23.64 29 26.28 29 29 C22.07 29 15.14 29 8 29 C8 33.95 8 38.9 8 44 C5.36 44 2.72 44 0 44 C0 29.48 0 14.96 0 0 Z " fill="#FDFDFD" transform="translate(239,14)"/>
<path d="M0 0 C7.26 0 14.52 0 22 0 C22 12.21 22 24.42 22 37 C21.67 37 21.34 37 21 37 C21 27.76 21 18.52 21 9 C16.71 9 12.42 9 8 9 C8 18.57 8 28.14 8 38 C5.36 38 2.72 38 0 38 C0 25.46 0 12.92 0 0 Z " fill="#E7E7E7" transform="translate(162,20)"/>
<path d="M0 0 C5.28 0 10.56 0 16 0 C16 2.64 16 5.28 16 8 C18.31 8 20.62 8 23 8 C23 17.9 23 27.8 23 38 C20.36 38 17.72 38 15 38 C15 28.43 15 18.86 15 9 C10.38 9 5.76 9 1 9 C0.67 8.67 0.34 8.34 0 8 C0 5.36 0 2.72 0 0 Z " fill="#EAEAEA" transform="translate(536,20)"/>
<path d="M0 0 C6.93 0 13.86 0 21 0 C21 6.93 21 13.86 21 21 C14.07 21 7.14 21 0 21 C0 14.07 0 7.14 0 0 Z M6 7 C6 9.31 6 11.62 6 14 C8.97 14 11.94 14 15 14 C15 11.69 15 9.38 15 7 C12.03 7 9.06 7 6 7 Z " fill="#030303" transform="translate(247,14)"/>
<path d="M0 0 C6.93 0 13.86 0 21 0 C21 6.6 21 13.2 21 20 C14.07 20 7.14 20 0 20 C0 13.4 0 6.8 0 0 Z M6 6 C6 8.64 6 11.28 6 14 C8.64 14 11.28 14 14 14 C14 11.36 14 8.72 14 6 C11.36 6 8.72 6 6 6 Z " fill="#030303" transform="translate(640,29)"/>
<path d="M0 0 C6.93 0 13.86 0 21 0 C21 6.6 21 13.2 21 20 C14.07 20 7.14 20 0 20 C0 13.4 0 6.8 0 0 Z M6 6 C6 8.64 6 11.28 6 14 C8.97 14 11.94 14 15 14 C15 11.36 15 8.72 15 6 C12.03 6 9.06 6 6 6 Z " fill="#000000" transform="translate(803,29)"/>
<path d="M0 0 C2.31 0 4.62 0 7 0 C7 2.31 7 4.62 7 7 C9.31 7 11.62 7 14 7 C14 11.62 14 16.24 14 21 C7.07 21 0.14 21 -7 21 C-7 16.38 -7 11.76 -7 7 C-4.69 7 -2.38 7 0 7 C0 4.69 0 2.38 0 0 Z " fill="#090909" transform="translate(600,14)"/>
<path d="M0 0 C2.31 0 4.62 0 7 0 C7.33 6.93 7.66 13.86 8 21 C14.93 21.33 21.86 21.66 29 22 C29 24.64 29 27.28 29 30 C21.74 30 14.48 30 7 30 C7 27.36 7 24.72 7 22 C4.69 22 2.38 22 0 22 C0 14.74 0 7.48 0 0 Z " fill="#EFEFEF" transform="translate(632,28)"/>
<path d="M0 0 C9.57 0 19.14 0 29 0 C29 7.26 29 14.52 29 22 C31.31 22 33.62 22 36 22 C36 24.31 36 26.62 36 29 C33.36 29 30.72 29 28 29 C28 26.69 28 24.38 28 22 C26.02 22 24.04 22 22 22 C22 24.64 22 27.28 22 30 C14.41 30 6.82 30 -1 30 C-1 29.67 -1 29.34 -1 29 C6.26 29 13.52 29 21 29 C21 26.69 21 24.38 21 22 C14.07 22 7.14 22 0 22 C0 21.67 0 21.34 0 21 C6.93 21 13.86 21 21 21 C21 14.4 21 7.8 21 1 C14.07 1 7.14 1 0 1 C0 0.67 0 0.34 0 0 Z " fill="#DBDBDB" transform="translate(803,28)"/>
<path d="M0 0 C2.64 0 5.28 0 8 0 C8 12.54 8 25.08 8 38 C5.36 38 2.72 38 0 38 C0 25.46 0 12.92 0 0 Z " fill="#ECECEC" transform="translate(679,20)"/>
<path d="M0 0 C2.64 0 5.28 0 8 0 C8 12.54 8 25.08 8 38 C5.36 38 2.72 38 0 38 C0 25.46 0 12.92 0 0 Z " fill="#F8F8F8" transform="translate(53,20)"/>
<path d="M0 0 C3.64588169 -0.02682987 7.29156846 -0.04675569 10.9375 -0.0625 C12.49887695 -0.07506836 12.49887695 -0.07506836 14.09179688 -0.08789062 C15.57583008 -0.09272461 15.57583008 -0.09272461 17.08984375 -0.09765625 C18.46450806 -0.10551147 18.46450806 -0.10551147 19.86694336 -0.11352539 C22 0 22 0 23 1 C23.04080783 2.99958364 23.04254356 5.00045254 23 7 C25.31 7 27.62 7 30 7 C30 9.97 30 12.94 30 16 C27.03 16 24.06 16 21 16 C21 13.69 21 11.38 21 9 C14.4 9 7.8 9 1 9 C1 10.98 1 12.96 1 15 C0.67 15 0.34 15 0 15 C0 10.05 0 5.1 0 0 Z " fill="#D1D1D1" transform="translate(430,20)"/>
<path d="M0 0 C2.97 0 5.94 0 9 0 C9 2.64 9 5.28 9 8 C6.69 8 4.38 8 2 8 C2.020625 9.134375 2.04125 10.26875 2.0625 11.4375 C2 15 2 15 1 16 C-0.63472882 16.08700342 -2.27314055 16.10701063 -3.91015625 16.09765625 C-4.89951172 16.09443359 -5.88886719 16.09121094 -6.90820312 16.08789062 C-7.94912109 16.07951172 -8.99003906 16.07113281 -10.0625 16.0625 C-11.10728516 16.05798828 -12.15207031 16.05347656 -13.22851562 16.04882812 C-15.8190666 16.03699913 -18.40950559 16.02051689 -21 16 C-21.09765625 9.84765625 -21.09765625 9.84765625 -21 8 C-20 7 -20 7 -18.05053711 6.88647461 C-17.2178833 6.89171143 -16.38522949 6.89694824 -15.52734375 6.90234375 C-14.62822266 6.90556641 -13.72910156 6.90878906 -12.80273438 6.91210938 C-11.85720703 6.92048828 -10.91167969 6.92886719 -9.9375 6.9375 C-8.98810547 6.94201172 -8.03871094 6.94652344 -7.06054688 6.95117188 C-4.70696935 6.9629989 -2.35351523 6.97947975 0 7 C0 4.69 0 2.38 0 0 Z " fill="#EFEFEF" transform="translate(404,42)"/>
<path d="M0 0 C2.31 0 4.62 0 7 0 C7 9.57 7 19.14 7 29 C4.69 29 2.38 29 0 29 C0 19.43 0 9.86 0 0 Z " fill="#FFFFFF" transform="translate(361,28)"/>
<path d="M0 0 C2.31 0 4.62 0 7 0 C7 9.57 7 19.14 7 29 C4.69 29 2.38 29 0 29 C0 19.43 0 9.86 0 0 Z " fill="#FFFFFF" transform="translate(206,28)"/>
<path d="M0 0 C2.31 0 4.62 0 7 0 C7 9.57 7 19.14 7 29 C4.69 29 2.38 29 0 29 C0 19.43 0 9.86 0 0 Z " fill="#FFFFFE" transform="translate(314,21)"/>
<path d="M0 0 C4.95 0 9.9 0 15 0 C15 12.21 15 24.42 15 37 C17.31 37 19.62 37 22 37 C22 37.33 22 37.66 22 38 C19.36 38 16.72 38 14 38 C14 28.43 14 18.86 14 9 C9.71 9 5.42 9 1 9 C1 18.24 1 27.48 1 37 C0.67 37 0.34 37 0 37 C0 24.79 0 12.58 0 0 Z " fill="#CCCCCC" transform="translate(191,20)"/>
<path d="M0 0 C2.31 0 4.62 0 7 0 C7.33 7.26 7.66 14.52 8 22 C5.36 22 2.72 22 0 22 C0 14.74 0 7.48 0 0 Z " fill="#FEFEFE" transform="translate(632,28)"/>
<path d="M0 0 C7.26 0 14.52 0 22 0 C22 2.31 22 4.62 22 7 C14.74 7 7.48 7 0 7 C0 4.69 0 2.38 0 0 Z " fill="#FFFFFF" transform="translate(709,50)"/>
<path d="M0 0 C7.26 0 14.52 0 22 0 C22 2.31 22 4.62 22 7 C14.74 7 7.48 7 0 7 C0 4.69 0 2.38 0 0 Z " fill="#FFFFFF" transform="translate(484,50)"/>
<path d="M0 0 C7.26 0 14.52 0 22 0 C22 2.31 22 4.62 22 7 C14.74 7 7.48 7 0 7 C0 4.69 0 2.38 0 0 Z " fill="#FFFFFF" transform="translate(430,50)"/>
<path d="M0 0 C7.26 0 14.52 0 22 0 C22 2.31 22 4.62 22 7 C14.74 7 7.48 7 0 7 C0 4.69 0 2.38 0 0 Z " fill="#FFFFFF" transform="translate(292,50)"/>
<path d="M0 0 C7.26 0 14.52 0 22 0 C22 2.31 22 4.62 22 7 C14.74 7 7.48 7 0 7 C0 4.69 0 2.38 0 0 Z " fill="#FFFFFF" transform="translate(383,21)"/>
<path d="M0 0 C2.97 0 5.94 0 9 0 C9 2.64 9 5.28 9 8 C9.99 8 10.98 8 12 8 C12 9.32 12 10.64 12 12 C11.01 12 10.02 12 9 12 C9 13.32 9 14.64 9 16 C7.35 16 5.7 16 4 16 C4 14.35 4 12.7 4 11 C5.32 11 6.64 11 8 11 C8 10.34 8 9.68 8 9 C6.2984375 9.0309375 6.2984375 9.0309375 4.5625 9.0625 C1 9 1 9 0 8 C-0.14115161 5.32941149 -0.04247107 2.67567762 0 0 Z " fill="#DBDBDB" transform="translate(70,48)"/>
<path d="M0 0 C0.33 0 0.66 0 1 0 C1 1.98 1 3.96 1 6 C3.31 6 5.62 6 8 6 C8 8.97 8 11.94 8 15 C5.03 15 2.06 15 -1 15 C-1 12.69 -1 10.38 -1 8 C-7.6 8 -14.2 8 -21 8 C-21 7.67 -21 7.34 -21 7 C-14.07 7 -7.14 7 0 7 C0 4.69 0 2.38 0 0 Z " fill="#808080" transform="translate(405,21)"/>
<path d="M0 0 C2.64 0 5.28 0 8 0 C8 2.31 8 4.62 8 7 C9.32 7 10.64 7 12 7 C12 8.65 12 10.3 12 12 C11.01 12 10.02 12 9 12 C9 12.99 9 13.98 9 15 C7.35 15 5.7 15 4 15 C4 13.68 4 12.36 4 11 C5.32 11 6.64 11 8 11 C8 10.01 8 9.02 8 8 C5.36 8 2.72 8 0 8 C0 5.36 0 2.72 0 0 Z " fill="#F3F3F3" transform="translate(140,6)"/>
<path d="M0 0 C2.97 0 5.94 0 9 0 C9 2.64 9 5.28 9 8 C6.69 8 4.38 8 2 8 C2 10.31 2 12.62 2 15 C1.67 15 1.34 15 1 15 C1 12.69 1 10.38 1 8 C-5.93 8 -12.86 8 -20 8 C-20 7.67 -20 7.34 -20 7 C-13.4 7 -6.8 7 0 7 C0 4.69 0 2.38 0 0 Z " fill="#C8C8C8" transform="translate(404,42)"/>
<path d="M0 0 C4.62 0 9.24 0 14 0 C14 2.31 14 4.62 14 7 C9.38 7 4.76 7 0 7 C0 4.69 0 2.38 0 0 Z " fill="#FFFFFF" transform="translate(537,21)"/>
<path d="M0 0 C2.64 0 5.28 0 8 0 C8 4.62 8 9.24 8 14 C15.26 14 22.52 14 30 14 C30 14.33 30 14.66 30 15 C22.41 15 14.82 15 7 15 C7 12.69 7 10.38 7 8 C4.69 8 2.38 8 0 8 C0 5.36 0 2.72 0 0 Z " fill="#EDEDED" transform="translate(748,57)"/>
<path d="M0 0 C2.64 0 5.28 0 8 0 C8 2.64 8 5.28 8 8 C5.69 8 3.38 8 1 8 C1 10.31 1 12.62 1 15 C0.67 15 0.34 15 0 15 C0 12.69 0 10.38 0 8 C-6.93 8 -13.86 8 -21 8 C-21 7.67 -21 7.34 -21 7 C-14.07 7 -7.14 7 0 7 C0 4.69 0 2.38 0 0 Z " fill="#D3D3D3" transform="translate(506,42)"/>
<path d="M0 0 C2.97 0 5.94 0 9 0 C9 2.64 9 5.28 9 8 C-0.57 8 -10.14 8 -20 8 C-20 7.67 -20 7.34 -20 7 C-13.4 7 -6.8 7 0 7 C0 4.69 0 2.38 0 0 Z " fill="#CDCDCD" transform="translate(451,42)"/>
<path d="M0 0 C2.97 0 5.94 0 9 0 C9 2.31 9 4.62 9 7 C11.31 7 13.62 7 16 7 C16 9.31 16 11.62 16 14 C15.67 14 15.34 14 15 14 C15 12.02 15 10.04 15 8 C7.74 8 0.48 8 -7 8 C-7 7.67 -7 7.34 -7 7 C-4.69 7 -2.38 7 0 7 C0 4.69 0 2.38 0 0 Z " fill="#DEDEDE" transform="translate(599,6)"/>
<path d="M0 0 C2.64 0 5.28 0 8 0 C8 2.64 8 5.28 8 8 C-1.57 8 -11.14 8 -21 8 C-21 7.67 -21 7.34 -21 7 C-14.07 7 -7.14 7 0 7 C0 4.69 0 2.38 0 0 Z " fill="#D7D7D7" transform="translate(730,42)"/>
<path d="M0 0 C2.64 0 5.28 0 8 0 C8 2.64 8 5.28 8 8 C5.36 8 2.72 8 0 8 C0 5.36 0 2.72 0 0 Z " fill="#F3F2F3" transform="translate(679,6)"/>
<path d="M0 0 C2.64 0 5.28 0 8 0 C8 2.64 8 5.28 8 8 C5.36 8 2.72 8 0 8 C0 5.36 0 2.72 0 0 Z " fill="#FFFFFE" transform="translate(53,6)"/>
<path d="M0 0 C2.31 0 4.62 0 7 0 C7 2.31 7 4.62 7 7 C4.69 7 2.38 7 0 7 C0 4.69 0 2.38 0 0 Z " fill="#FFFFFF" transform="translate(832,50)"/>
<path d="M0 0 C2.31 0 4.62 0 7 0 C7 2.31 7 4.62 7 7 C4.69 7 2.38 7 0 7 C0 4.69 0 2.38 0 0 Z " fill="#FFFFFF" transform="translate(452,28)"/>
<path d="M0 0 C2.31 0 4.62 0 7 0 C7 2.31 7 4.62 7 7 C4.69 7 2.38 7 0 7 C0 4.69 0 2.38 0 0 Z " fill="#FFFFFF" transform="translate(405,28)"/>
<path d="M0 0 C2.31 0 4.62 0 7 0 C7 2.31 7 4.62 7 7 C4.69 7 2.38 7 0 7 C0 4.69 0 2.38 0 0 Z " fill="#FFFFFF" transform="translate(593,14)"/>
<path d="M0 0 C1.32 0 2.64 0 4 0 C4 1.32 4 2.64 4 4 C3.01 4 2.02 4 1 4 C1 4.99 1 5.98 1 7 C-0.65 7 -2.3 7 -4 7 C-4 5.68 -4 4.36 -4 3 C-2.68 3 -1.36 3 0 3 C0 2.01 0 1.02 0 0 Z " fill="#E7E7E7" transform="translate(148,14)"/>
<path d="M0 0 C2.475 0.495 2.475 0.495 5 1 C5 2.32 5 3.64 5 5 C3.35 5 1.7 5 0 5 C0 3.35 0 1.7 0 0 Z " fill="#CBCBCB" transform="translate(74,59)"/>
</svg>
